<?xml version="1.0" standalone="no"?>
<!DOCTYPE svg PUBLIC "-//W3C//DTD SVG 20010904//EN"
 "http://www.w3.org/TR/2001/REC-SVG-20010904/DTD/svg10.dtd">
<svg version="1.0" xmlns="http://www.w3.org/2000/svg"
 width="500.000000pt" height="500.000000pt" viewBox="0 0 500.000000 500.000000"
 preserveAspectRatio="xMidYMid meet">

<g transform="translate(0.000000,500.000000) scale(0.100000,-0.100000)"
fill="#00ac70" stroke="none">
<path d="M722 4738 c-135 -23 -240 -140 -250 -278 -4 -63 -2 -72 37 -151 54
-107 110 -206 139 -246 12 -17 22 -35 22 -40 0 -5 16 -32 35 -62 19 -29 35
-56 35 -61 0 -5 16 -32 35 -61 19 -30 35 -57 35 -62 0 -5 13 -28 30 -52 16
-24 34 -54 39 -67 5 -13 21 -38 35 -57 14 -19 26 -40 26 -46 0 -6 15 -33 33
-60 17 -28 38 -61 45 -75 6 -14 32 -59 56 -100 50 -84 101 -173 138 -241 14
-25 38 -64 52 -87 14 -23 26 -45 26 -48 0 -4 16 -31 35 -60 19 -29 35 -56 35
-61 0 -5 11 -25 25 -46 14 -20 40 -63 57 -94 17 -32 38 -64 45 -71 7 -7 13
-19 13 -25 0 -7 14 -32 30 -57 17 -25 40 -63 51 -85 11 -22 37 -69 59 -105 21
-36 53 -90 70 -120 17 -30 44 -77 60 -105 17 -27 38 -65 47 -82 9 -18 20 -33
25 -33 4 0 8 -7 8 -16 0 -10 16 -41 35 -70 19 -29 35 -55 35 -58 0 -4 12 -25
27 -49 15 -23 40 -67 56 -97 16 -30 32 -57 36 -60 3 -3 14 -22 24 -43 15 -34
17 -81 17 -513 l0 -475 26 -62 c47 -113 147 -177 274 -177 49 0 182 32 205 50
6 4 35 15 65 25 30 10 93 33 138 51 46 19 89 34 95 34 6 0 50 15 97 34 47 19
96 37 110 40 39 8 107 66 148 125 l37 53 3 389 3 388 34 53 c19 29 35 58 35
65 0 6 6 18 14 26 8 8 29 41 47 73 17 33 39 70 49 84 10 14 30 49 46 78 36 67
52 94 89 157 35 59 49 84 93 162 18 32 53 92 77 133 25 41 53 91 62 110 10 19
21 37 24 40 4 3 20 31 37 62 16 32 39 70 50 85 11 15 32 52 48 81 36 67 51 94
89 157 16 28 37 64 46 80 9 17 34 62 57 100 22 39 53 93 68 120 15 28 37 64
50 81 13 17 24 36 24 42 0 6 13 31 29 54 102 151 97 302 -14 413 -87 88 -93
90 -382 93 -193 2 -253 6 -253 15 0 7 16 37 35 67 19 30 35 58 35 63 0 4 16
31 35 60 19 28 35 56 35 61 0 5 15 32 33 60 116 177 79 361 -93 464 -43 26
-51 27 -200 29 -395 7 -2823 7 -2858 1z m2956 -260 c7 -7 12 -20 12 -29 0 -17
-39 -97 -59 -123 -4 -6 -22 -37 -39 -69 -17 -31 -43 -74 -57 -94 -14 -21 -25
-42 -25 -46 0 -5 -9 -22 -21 -38 -12 -17 -36 -58 -54 -92 l-33 -62 -714 -5
c-790 -6 -724 0 -799 -73 -76 -74 -66 -225 20 -324 6 -7 11 -17 11 -23 0 -6
16 -34 35 -63 19 -28 35 -56 35 -60 0 -5 9 -21 19 -36 11 -15 34 -54 52 -86
17 -33 38 -67 45 -76 8 -8 14 -20 15 -25 0 -5 25 -49 54 -99 30 -49 72 -121
92 -158 55 -99 64 -116 101 -175 17 -29 32 -56 32 -61 0 -4 9 -20 20 -34 11
-13 32 -48 46 -77 62 -125 157 -177 271 -150 57 14 106 57 148 131 44 77 89
156 110 195 13 22 35 59 49 82 14 23 26 46 26 50 0 5 8 20 19 33 10 13 33 51
51 84 18 33 38 67 45 75 6 8 24 40 40 70 15 30 31 57 34 60 17 12 55 107 54
136 -1 32 -25 79 -52 102 -8 6 -40 12 -71 12 -31 0 -63 -6 -72 -12 -18 -15
-88 -119 -88 -131 0 -5 -16 -32 -35 -61 -19 -29 -35 -56 -35 -60 0 -4 -16 -31
-35 -60 -19 -29 -35 -57 -35 -61 0 -4 -16 -32 -35 -61 -19 -29 -35 -56 -35
-61 0 -4 -13 -27 -28 -50 -15 -23 -42 -69 -61 -102 -23 -40 -41 -61 -53 -61
-10 0 -18 4 -18 9 0 5 -16 32 -35 61 -19 29 -35 57 -35 63 0 6 -6 18 -14 26
-8 9 -26 41 -42 71 -15 30 -41 73 -56 94 -15 21 -28 43 -28 48 0 5 -16 33 -35
62 -19 29 -35 56 -35 60 0 4 -16 31 -35 60 -19 29 -35 57 -35 62 0 5 -14 29
-30 54 -17 25 -38 61 -46 80 -8 19 -18 37 -23 40 -9 6 -81 141 -81 152 0 5
458 7 1018 6 l1017 -3 3 -21 c3 -19 -42 -123 -58 -134 -4 -3 -22 -32 -40 -65
-37 -71 -74 -136 -112 -198 -16 -25 -28 -50 -28 -56 0 -5 -6 -16 -14 -24 -8
-8 -29 -41 -46 -72 -17 -32 -43 -74 -56 -94 -13 -20 -24 -39 -24 -44 0 -5 -16
-32 -35 -61 -19 -29 -35 -56 -35 -59 0 -4 -15 -30 -32 -59 -40 -64 -53 -87
-97 -170 -18 -34 -37 -65 -41 -68 -7 -5 -36 -55 -91 -160 -13 -25 -27 -47 -30
-50 -3 -3 -21 -32 -40 -66 -19 -33 -54 -95 -79 -138 -69 -117 -120 -207 -145
-251 -13 -22 -47 -83 -76 -135 l-54 -95 -3 -385 -3 -386 -62 -24 c-34 -13 -66
-27 -71 -32 -6 -4 -18 -8 -28 -8 -10 0 -57 -15 -105 -34 -210 -81 -300 -112
-379 -132 -12 -4 -28 1 -37 11 -15 15 -17 63 -17 493 0 450 -1 480 -20 531
-11 30 -31 70 -45 91 -14 20 -25 39 -25 43 0 4 -15 30 -32 59 -39 63 -58 96
-94 163 -15 28 -40 69 -55 92 -16 23 -29 45 -29 50 0 5 -16 32 -35 62 -19 29
-35 56 -35 60 0 3 -16 30 -35 60 -19 29 -35 57 -35 63 0 5 -13 28 -29 51 -15
23 -38 62 -51 86 -12 25 -29 51 -36 59 -8 7 -14 19 -14 25 0 7 -15 35 -32 62
-18 28 -39 61 -46 75 -6 14 -32 59 -57 100 -24 41 -58 100 -75 130 -17 30 -46
82 -65 115 -20 33 -40 70 -47 83 -6 12 -15 22 -20 22 -4 0 -8 7 -8 16 0 10
-16 41 -35 70 -19 29 -35 57 -35 62 0 5 -13 27 -28 48 -15 21 -40 63 -56 93
-15 30 -34 61 -42 68 -8 8 -14 20 -14 26 0 7 -14 32 -30 57 -17 25 -40 63 -51
85 -11 22 -37 69 -59 105 -21 36 -53 90 -70 120 -17 30 -44 78 -60 105 -17 28
-38 65 -47 83 -9 17 -20 32 -25 32 -4 0 -8 8 -8 19 0 10 -8 29 -19 42 -10 13
-33 51 -51 84 -18 33 -39 67 -46 76 -17 19 -18 34 -4 60 11 19 38 19 1473 19
1125 0 1466 -3 1475 -12z"/>
</g>
</svg>
